<mxfile host="app.diagrams.net" modified="2024-03-27T00:03:09.498Z" agent="Mozilla/5.0 (Macintosh; Intel Mac OS X 10_15_7) AppleWebKit/537.36 (KHTML, like Gecko) Chrome/123.0.0.0 Safari/537.36" version="24.2.0" etag="3-Y3wnfxRA_iNj8UNLcs" type="github">
  <diagram name="Page-1" id="Vi5kIr42quqznJziKLYt">
    <mxGraphModel>
      <root>
        <mxCell id="0" />
        <mxCell id="1" parent="0" />
      </root>
    </mxGraphModel>
  </diagram>
</mxfile>
